<?xml version="1.0" encoding="UTF-8"?>
<svg id="Calque_1" data-name="Calque 1" xmlns="http://www.w3.org/2000/svg" version="1.1" viewBox="0 0 595.3 841.9">
  <defs>
    <style>
      .cls-1 {
        fill: #000;
      }

      .cls-1, .cls-2 {
        stroke-width: 0px;
      }

      .cls-2 {
        fill: #fff;
      }
    </style>
  </defs>
  <path class="cls-1" d="M389.7,692.2c-3.5-15.5-8.2-30.6-13.7-45.5-13.8-37.4-27.8-74.8-41.8-112.1-8.2-22-15.8-44.1-20.6-67.1-4-19.2-7.3-38.6-9-58.2-.8-9.2-1.5-18.4-1.7-27.5-.6-21.5.5-43,3.6-64.3,2-13.8,4.4-27.6,6.9-41.4,2.3-12.5,4.3-25,4.6-37.7.5-18.4-.2-36.7-3.5-54.8-3.3-17.9-7.4-35.5-12.9-52.8-2.9-8.9-6-17.8-10.5-26.1-1.8-3.3-3.8-6.3-6.8-8.7-1.4-1.1-3-1.8-4.8-1.4-2.8.6-5.5,1.5-8.3,2.3-2.2.7-3.1,2.3-3.4,4.6-.9,7.5-1.8,14.9-2.8,22.4-1.3,9.5-2.7,18.9-4.1,28.3-1.1,7.2-2.3,14.5-1.9,21.9,0,.6.1,1.2.2,2.1,3.5-.4,6.8-.6,10.1-1.1,2.1-.3,3.4-1.6,3.7-3.7.5-2.9.9-5.9,1.3-8.9.5-4.6.8-9.2,1.3-13.7.2-2.3.7-2.7,3-2.1,2.1.5,4.1,1.2,6.2,2,3,1.1,5,3.2,5.7,6.4.3,1.1.8,2.2,1,3.3,2.1,9.6,4.3,19.2,6.2,28.9,2.2,11.2,3.8,22.5,4.4,33.9.6,12.6-.1,25.1-1.5,37.5-1,8.3-2.2,16.5-3.2,24.8-1.5,11.6-3,23.1-4.3,34.7-1,9.1-2.1,18.3-2.6,27.5-.6,11.7-.9,23.5-1,35.2-.1,16.9.2,33.7,2,50.5,1.3,12.6,3.5,25,6.6,37.3,3.9,15.8,9,31.3,14.4,46.7,15.8,45.4,32.6,90.3,52.2,134.2,7.1,15.8,13.6,31.8,16.9,49,1.8,9.3,3.7,18.6,3.8,28.2,0,4.9.1,9.7.4,14.6,0,2.2.5,4.3.8,6.5h.6c.6-1,1.3-1.9,1.9-2.9,2.7-4.8,3.7-9.9,3.9-15.4.5-12.6-.3-25.1-3-37.4h0ZM391.9,730.5c-.2,5.1-1.4,9.8-3.9,14.2-.2.4-.4.8-.7,1.2,0,.1-.2.2-.7.5-.2-3.7-.4-7.1-.5-10.4-.3-6.7,0-13.4-1-20-1.2-8.8-3.1-17.6-5-26.3-2.8-12.6-8.1-24.4-13.1-36.2-8.6-20.3-17.5-40.6-25.7-61.1-12.5-31.3-23.7-63.1-34.4-95-5.7-17-10.2-34.2-13-51.9-1.7-10.7-3-21.5-3.2-32.3-.4-16.2-.8-32.4-.5-48.6.3-12.9,1.2-25.8,2.6-38.6,2.1-19.4,4.8-38.6,7.2-58,1.6-13,3-26,2.9-39.2-.1-13.2-1.6-26.4-4.2-39.3-2.1-10.7-4.5-21.3-6.8-31.9-.2-.9-.6-1.7-.8-2.6-.8-3.7-3.1-5.9-6.6-7.1-2.3-.8-4.6-1.5-7-2-1.8-.4-2.5.2-2.6,2-.6,5.1-1,10.2-1.6,15.2-.3,2.7-.8,5.3-1.1,8-.3,1.9-1.4,3.1-3.2,3.3-2.8.4-5.5.5-8.3.8-1,0-.9-.7-1-1.3-.3-6.1.5-12.1,1.3-18.1,2-13.9,4-27.7,6-41.6.6-4.2,1.1-8.4,1.5-12.7.2-1.9,1-3.2,2.8-3.8,2.5-.8,5-1.6,7.5-2.2,1.8-.5,3.5,0,5,1.2,2.9,2.3,4.8,5.3,6.5,8.5,4.3,8,7.3,16.4,10.1,25,7,21.5,12,43.5,15.1,65.9,1.9,13.4,1.9,26.9,1.7,40.4-.3,15.1-2.8,29.8-5.7,44.5-3.2,16.6-5.9,33.4-7.5,50.2-1.7,16.7-2.4,33.5-2,50.3.4,16,1.8,31.9,4.1,47.8,2.9,20.5,6.6,40.7,12.2,60.6,4.9,17.5,11.3,34.6,17.7,51.7,13.1,35,26.2,70,39.2,105.1,5.5,14.8,10.2,29.9,13.7,45.3,2.9,12.7,3.6,25.6,3,38.6h0Z"/>
  <path class="cls-1" d="M145.7,306.3c-5.2-1.3-10.4-2.6-15.6-3.9-2.3-.5-2.9,0-3.1,2.5-.2,4-.3,8-.6,12-.5,6-1.6,11.8-4.1,17.3-1.2,2.6-3.1,4.1-5.9,4.4-5.9.6-11.9,1.3-17.8,1.5-12.4.4-24.8,0-37.1-.9-5.9-.5-11.9-1.1-17.7-2.6-2.9-.8-5.9-1.4-8.9-1.9-2-.3-2.6.2-2.9,2.2-1,5.2-1.9,10.3-2.8,15.5-.4,2.5-.6,5-1,7.5v4.2c.2,1.1.4,2.2.8,3.2.5,1.6,2,2.6,3.2,2.3,3.7-.9,7.3-2,11-2.7,15.5-3.2,30.9-6.8,46.7-8.1,9-.7,17.9-1.3,26.9-1.8,7.2-.4,14.4-.5,21.7-.7.8,0,1.7-.2,2.5-.2.4-6.8.7-13.4,1-20,.3-5.8.9-11.5,2.4-17.1.9-3.5,1.7-7.1,2.6-10.6.3-1.1-.1-1.8-1.3-2.1h0ZM146.2,308.9c-1.1,4.1-2.4,8.3-3,12.5-1,6.8-1.6,13.8-2.1,20.6-.3,3.9-.4,7.9-.6,11.8,0,1.3-.5,1.6-1.7,1.6-10.4.4-20.8.8-31.2,1.1-16.1.6-31.9,2.7-47.7,6-8.3,1.8-16.6,3.5-24.9,5.3-.7.1-1.3.3-1.9.5-1.7.6-2.8.1-3.2-1.6-.4-1.8-.5-3.7-.7-4.9.5-9,1.9-17.1,3.7-25.2.3-1.3,1.1-1.6,2.3-1.4,2.3.5,4.6.9,6.8,1.5,6.8,1.9,13.7,2.9,20.7,3.1,11.9.5,23.8.9,35.7.9,6,0,12-.9,18-1.4,3.2-.3,5.5-2,6.8-5,2.7-6.1,3.8-12.6,4.3-19.3.2-3.4.3-6.9.6-10.3.1-1.8.4-2,2.2-1.6,5,1.2,9.9,2.5,14.9,3.6,1.1.3,1.6.8,1.2,2h0Z"/>
  <path class="cls-1" d="M444.6,480.6c-2.2-4.5-5.8-8.1-10.2-10.2-6-3-12.3-5.4-18.5-7.9-7.8-3.1-15.8-5.7-22.8-10.4-.5-.4-1.2-.6-1.8-.8-2.8-1.1-5.6-1.9-8.3-3.2-15-7.1-29.5-14.9-43.5-23.8-1.2-.8-2.5-1.5-3.9-2.1-1-.5-1.5,0-1.7,1-.3,1.7,0,3.2,1.4,4.2,2.6,2.1,5.1,4.2,7.8,6,18.9,12.6,37.8,25.2,56.7,37.8,5.4,3.6,10.6,7.6,16.2,11,3.2,2,6.1,4.1,8.7,6.7,2.2,2.1,2.5,4.2,1.4,7-6.4,16.7-14.1,32.6-23.1,48-8.4,14.4-17,28.7-25.4,43.1-1.7,2.9-3,6-4.3,9-.3.8,0,1.9,0,2.8.9-.5,2-.7,2.6-1.4,1.8-2,3.3-4.1,4.9-6.1,17.1-21.7,33.5-43.9,47.9-67.5,4.8-7.9,9.2-15.9,13.6-24,2.2-4,3.7-8.4,4.1-13.2-.5-2-.8-4.1-1.7-5.9ZM436.5,509.3c-13.6,23.3-28.5,45.6-45,67-5,6.5-10,13-15.1,19.4-.7.9-1.6,1.7-2.4,2.5-.2,0-.3-.2-.5-.3.4-1,.5-2.1,1-3.1,3.7-6.8,7.3-13.7,11.2-20.5,8.5-14.8,17.4-29.4,25.7-44.4,6-10.7,10.7-22,15.2-33.4,1.4-3.4,1-6-1.8-8.5-2.6-2.4-5.4-4.5-8.4-6.4-5.3-3.3-10.3-7.1-15.5-10.6-19.1-12.8-38.2-25.5-57.3-38.3-2.7-1.8-5.2-3.8-7.7-5.9-1.2-1-1.8-2.3-1-4.1.7.3,1.3.5,1.9.9,6.2,3.7,12.3,7.7,18.6,11.1,10.1,5.4,20.4,10.5,30.7,15.6,1.4.7,3,1.1,4.6,1.6.7.2,1.5.5,2.1.9,6.1,4.2,13.1,6.5,19.9,9.2,6.3,2.5,12.6,4.9,18.9,7.6,4.3,1.8,7.8,4.9,10.7,8.5,3.5,4.4,3.5,9.2,2,14.2-1.8,6-4.6,11.4-7.7,16.8h0Z"/>
  <path class="cls-1" d="M153.8,411.5c-1.3-4.5-2.5-8.9-3.9-13.4-1.9-6.2-3.6-12.5-4.2-19-.4-4.9-.8-9.9-1.2-15.1-1.7.1-3.3.2-4.9.3-5.1.5-9.8,1.7-14.2,4.5-1.9,1.2-2.7,2.8-2.4,5,.8,6.8,2.4,13.4,5.2,19.7.4,1,.8,2,1.1,3,.6,2,.2,3.1-1.5,4.1-.6.3-1.2.7-1.8.9-6.7,2.1-13.4,4.3-20.2,6.3-3.7,1.1-3.7.9-5.4-2.7-.9-1.9-1.9-3.8-3-5.6-.7-1.1-1.8-1.5-3.1-1.5-3.9,0-7.5,1.2-10.8,3.1-2.6,1.5-3,2.4-2.4,5.4.6,3.4,1.3,6.8,2,10.2.3,1.4-.1,2.5-1.4,3.2-1.6.9-3.2,1.8-4.9,2.4-5.7,2.2-11.3,4.2-17,6.4-2,.8-2.8.6-3.7-1.3-1.5-3.1-2.8-6.4-3.9-9.7-1.6-5.2-3-10.6-4.5-15.9-.1-.5-.7-1.2-1-1.2-3.6.2-7.3.3-10.7,1.7-2.1.8-3.5,2.2-4,4.4-.2,1-.5,2-.3,3,.5,4.4.9,8.8,1.7,13,1.6,8.5,4.5,16.6,7.9,24.5,2.6,6,5.4,11.8,8.5,17.6,1.9,3.5,2.8,3.4,6,1,3.7-2.8,7.3-5.8,11.2-8.3,16.7-10.8,34.3-19.9,52.3-28,8.5-3.8,17-7.5,26.1-9.8,1.9-.5,3.7-.9,5.6-1.5,2.3-.7,3.1-2.1,3-4.5,0-.8-.1-1.5-.3-2.2h0ZM149.7,417.8c-5.4,1.6-10.9,3-16.2,5-14.4,5.4-28.2,12.2-41.8,19.4-9.9,5.3-19.7,10.7-28.8,17.2-2.6,1.9-5.1,3.9-7.6,5.8-2.7,2-3.2,2.1-4.8-.9-2.5-4.5-4.9-9.1-6.9-13.8-3.7-8.6-7-17.4-9-26.5-1-4.5-1.5-9-2.3-13.6,0,0,.2,0,.3,0,0-.9,0-1.7.2-2.6.3-2.4,1.5-4.2,3.9-4.7,3.1-.7,6.3-1.1,9.5-1.5.3,0,1,.7,1.1,1.2,1.4,5,2.7,10.1,4.2,15,1.1,3.5,2.5,6.8,4.1,10.1,1.1,2.2,2.2,2.4,4.5,1.6,5.6-2.1,11.3-4.1,16.9-6.3,1.5-.6,3-1.2,4.4-2,2.5-1.4,3-2.5,2.4-5.4-.5-2.4-1-4.9-1.6-7.3,0-.2-.1-.4-.1-.6-.8-4.3-.9-5.1,3.7-7.1,2.3-1,4.8-1.5,7.3-2,1.9-.4,3.4.3,4.4,2,.7,1.2,1.3,2.5,1.9,3.8.4.8.7,1.6,1.1,2.3,1.3,2.5,1.7,2.7,4.3,1.9,7.4-2.2,14.7-4.4,22-6.9,3.6-1.2,4.2-3.1,3-6.6-.2-.6-.4-1.1-.7-1.7-2.8-6.1-4.3-12.6-5.3-19.2-.3-2.4.4-4,2.5-5.2,5.1-3,10.7-4,16.6-4.3,1.1,0,1.1.7,1.1,1.4.2,2.8.4,5.6.5,8.3.5,9.7,3.1,18.9,6.1,28.1,1,3.1,1.9,6.3,2.6,9.5.8,3.4,0,4.5-3.4,5.6h0Z"/>
  <path class="cls-1" d="M542.2,329.3c-.1-1.9-1.2-3.3-2.8-4.4-3-2-6.4-3-9.8-3.9-8.1-2-16.3-3.4-24.6-4-9.4-.7-18.8-1.4-28.1-1.7-12.5-.4-25,.7-37.5,2.3-12.3,1.6-24.6,3.3-36.4,6.8-14,4.1-28.1,7.5-42.3,10.6-1.8.4-3.5,1.1-5.3,1.6,1.3,3.4,3.9,5.7,7,5.2,4.6-.7,9.3-1.3,13.9-2.1,14.7-2.4,29.1-6.5,44-7.5,8.4-.6,16.7-1.4,25.1-2,5.1-.4,10.2-.5,15.3-1,6.1-.6,12-.4,18.1.6,8.8,1.5,17.6,2.5,26.4,3.8,8.2,1.3,16.3,2.8,24.5,4.2,3,.5,6,1.3,9.1,1.6,2.5.3,3.7-.7,3.8-3.2.2-2.3,0-4.6-.2-6.9h0ZM537.5,338.6c-3.1-.5-6.1-1.4-9.2-2-8.6-1.5-17.2-2.9-25.9-4.2-10.2-1.5-20.4-3-30.6-4.4-2.8-.4-5.8,0-8.6.1-10.2.7-20.5,1.4-30.7,2.1-14.5,1.1-28.9,2.9-43.1,6.1-8.6,1.9-17.4,3-26.1,4.6-3.4.6-5.3-1.1-7.2-3.9,1.8-.5,3.4-1,5-1.4,11.1-2.7,22.3-5,33.3-8.2,15.3-4.5,30.9-7.4,46.6-9.4,13.3-1.7,26.7-2.5,40.1-2,16.3.6,32.5,1.9,48.4,5.7,3.4.8,6.7,1.8,9.6,3.9,1.3.9,2.1,2.1,2.2,3.6.2,1.9.4,3.8.4,5.8,0,3-1.2,4-4.2,3.5h0Z"/>
  <path class="cls-1" d="M184.4,225.1c-2.4-4.2-5.5-7.8-9.3-10.7-1.2-.9-2.4-1-3.5,0-1.7,1.5-3.4,2.9-4.8,4.6-2.8,3.6-5.4,7.3-8.1,11-2.5,3.4-4.9,4.1-8.3,1.7-3-2.1-5.6-4.8-8.4-7.2-.8-.7-.8-1.7-.2-2.6.5-.8.9-1.7,1.3-2.5,1-1.8,1.1-3.6-.3-5.2-2.3-2.7-4.6-5.5-7.2-7.9-3.4-3.2-5-2.8-7.4,1.3-.9,1.5-1.8,3.1-2.6,4.6-.7,1.2-1.5,1.5-2.7.6-3.5-2.6-7.1-5.1-10.6-7.6-1.3-.9-1.6-1.9-.6-3.3,3.9-5.9,7.8-11.8,11.7-17.7,1-1.6,2.2-3.1,3.1-4.7,1.3-2.2,1.6-4.6.5-7-1.4-3-3.4-5.6-6.1-7.6-.6-.5-1.4-.6-2.2-.9-1.3.4-2.6.6-3.6,1.3-3.2,2.2-6.5,4.3-9.3,6.9-9.1,8.5-16.2,18.6-22.8,29-2.3,3.7-4.4,7.5-6.6,11.2-.6,1.1-.3,2,.7,2.6,1.1.7,2.2,1.4,3.4,1.9,7.2,3.5,14.5,6.9,21.8,10.3,11.4,5.2,22.3,11.3,31.9,19.4,5.5,4.6,10.9,9.4,16.4,14,2.1,1.7,4.3,3.4,6.6,4.7,3.2,1.8,5,1.1,6.5-2.2,1.3-2.8,2.3-5.8,3.9-8.4,3.6-6,7.5-11.8,11.2-17.6,1.7-2.6,3.4-5.3,5.1-7.9.8-1.3,1.1-2.7.2-4.1h0ZM183.4,229c-1.6,2.5-3.1,5.1-4.9,7.5-6,8.1-11.3,16.6-15.2,26-1.4,3.3-2.9,3.9-5.9,2-3.4-2.3-6.6-5-9.8-7.6-6.7-5.4-13.2-11.1-20.1-16.4-8.4-6.5-18.1-10.8-27.7-15.3-6.6-3.1-13.1-6.1-19.6-9.3-4.2-2.1-3.8-1.9-1.7-5.5,7.9-13.6,16.5-26.6,27.9-37.5,2.8-2.7,5.9-5.3,9.5-7,3.1-1.4,4.5-1.3,6.6,1.4,1.5,1.9,2.8,3.9,4.1,6,.4.6.4,1.4.4,1.8,0,2.7-1.2,4.6-2.5,6.5-4.1,6.1-8.3,12.1-12.3,18.2-2.7,4.1-2.6,4.3,1.3,7.2,3.1,2.3,6.4,4.5,9.6,6.7,1.2.9,2.2.6,2.9-.6.9-1.6,1.8-3.1,2.7-4.7,2.3-4.1,3.4-4.4,6.8-1.2,2.4,2.3,4.6,5,6.8,7.6,1.1,1.3,1,2.8.2,4.3-.5.9-.9,1.8-1.4,2.7-.8,1.3-.7,2.5.4,3.5,2.8,2.5,5.4,5.2,8.5,7.3,3.9,2.7,6.7,1.9,9.4-2,2.6-3.6,5.2-7.3,8-10.9,1.2-1.6,2.8-2.9,4.3-4.2.9-.9,2-.9,3,0,3.6,2.8,6.6,6.3,8.9,10.2.7,1.3.4,2.5-.3,3.6h0Z"/>
  <path class="cls-1" d="M219.3,471.6c-1.1-1.1-2.2-2.2-3.5-3.1-4-3.1-8.4-4.3-13.2-2.6-3.2,1.1-6,3-8.3,5.4-6.6,6.7-12.7,13.7-18.2,21.4-.2.3-.5.6-.8,1-.2-.2-.3-.3-.3-.4,0-.4,0-.8,0-1.2.2-6.9,1.7-13.6,3.5-20.2,1.3-4.7,2.6-9.4,4-14.1.6-2,.3-3.7-.9-5.4-2.3-3.2-5.3-5.5-8.9-7.1-3.7-1.7-6-.9-7.5,2.9-1.1,2.6-1.9,5.3-2.8,8-3.8,11.9-7.2,24-11.5,35.8-5.2,14.3-11.1,28.4-16.6,42.6-1.7,4.5-3.7,8.8-4.3,13.7-.4,3.6.2,6.8,3.5,8.9,5.3,3.3,10.6,6.7,16,9.8,2.1,1.3,3.3.9,4.9-.9,1.4-1.5,2.7-3.2,3.8-4.9,5-8.3,9.9-16.6,14.9-24.9,4-6.6,7.7-13.4,12.2-19.5,10.3-13.9,21.5-27.1,33.2-39.9.4-.4.7-.8,1.1-1.3.9-1.3.9-2.6-.2-3.7h0ZM218.3,475.6c-1.9,2.2-3.9,4.2-5.8,6.4-9.4,11.4-19.1,22.7-28.2,34.4-4.4,5.6-7.7,12-11.4,18.1-5.1,8.5-10.1,17.1-15.2,25.6-1.1,1.8-2.4,3.5-3.8,5.1-1.5,1.7-2.3,2-4.2.8-5.4-3.2-10.8-6.6-16.1-10-2.4-1.5-3.1-3.9-2.9-6.6-.1,0-.3,0-.4,0,.9-3.2,1.5-6.4,2.7-9.4,6.2-16.1,12.8-32,18.7-48.2,4.3-11.7,7.6-23.8,11.4-35.7.8-2.6,1.6-5.1,2.6-7.6,1.4-3.4,3.3-4.1,6.6-2.5,3.6,1.6,6.6,4,8.7,7.3.7,1.1,1.1,2.3.7,3.6-1.2,4.3-2.3,8.6-3.5,12.9-1.9,6.7-3.4,13.4-4,20.4-.1,1-.1,2.1,0,3.2,0,.5.5,1,.7,1.5.5-.3,1.1-.5,1.4-1,3.2-4,6.2-8,9.4-11.9,3-3.5,6.1-6.9,9.4-10.1,3-3,6.6-5.2,11-5.7,3.6-.4,6.6,1.1,9.4,3.1,1,.7,1.9,1.5,2.8,2.4,1.5,1.5,1.5,2.5.1,4.1h0Z"/>
  <path class="cls-1" d="M163.4,434.3c-.9-2.2-1.9-4.5-3.3-6.4-2.6-3.9-4-4-7.2-.6-5.8,6-11.5,12-17.1,18-10,10.8-20.1,21.5-31.4,31-5.1,4.3-10.3,8.3-15.7,12.6-1-1.2-1.7-2.2-2.4-3.1-3.2-4.2-6.4-8.5-9.6-12.7-.9-1.2-2-1.5-3.3-.7-3.3,2.2-6.7,4.4-9.8,6.8-1.8,1.4-2.3,3.5-1.3,5.6,2.3,4.6,4.3,9.5,7.2,13.6,10.3,14.9,23.4,27,38,37.6,1.7,1.2,3.6,2.2,5.5,2.9,2.3.9,3.4.2,4.6-1.9,1.2-2.1,2.4-4.1,3.7-6.1.4-.7,1-1.3,1.4-2,1.6-2.5,1.4-4.5-.6-6.6-.6-.6-1.2-1.2-1.9-1.7-5-3.4-9.2-7.8-13.1-12.3-.3-.4-.5-1.2-.3-1.6,1.7-3.3,3.4-6.6,5.3-9.7,6.9-11.1,15.1-21.1,23.8-30.8,7.3-8.1,14.9-16,23.7-22.5.9-.7,1.7-1.5,2.5-2.4,1.9-2,2.3-4.4,1.4-6.9h0ZM161.7,440.3c-.8.9-1.6,1.8-2.6,2.6-8.9,6.6-16.6,14.5-24,22.7-8.6,9.6-16.8,19.6-23.6,30.6-2.1,3.4-3.9,7-5.8,10.5-.2.5-.1,1.4.2,1.8,4.1,4.6,8.3,9.2,13.4,12.7.3.2.7.5.9.7,3,2.6,3.2,4.3.9,7.5-1.6,2.2-3,4.5-4.4,6.9-1.2,2-2.1,2.5-4.3,1.6-1.6-.7-3.2-1.5-4.6-2.6-14.6-10.6-27.7-22.7-38-37.6-2.8-4.1-4.7-8.8-7-13.3-.9-1.8-.5-3.7,1.2-4.9,3.1-2.3,6.3-4.4,9.5-6.5,1-.6,1.8-.4,2.5.5,2.9,3.9,5.8,7.8,8.8,11.6,1.1,1.5,2.3,3,3.6,4.7,5.1-4,10-7.7,14.8-11.7,13.5-11.2,25.2-24.1,37.1-36.9,4.4-4.7,8.9-9.3,13.4-13.9,2.5-2.5,3.1-2.5,5.4.3,1.8,2.2,3.2,4.7,3.8,7.5.4,1.9,0,3.5-1.2,5h0Z"/>
  <path class="cls-1" d="M238.1,178.4c-1.7-2.2-4-4-6.2-5.7-6.2-4.6-13.2-7.6-20.2-10.6-5.1-2.2-10.4-3.9-15.6-5.7-1.8-.6-2.1-.7-1.2-2.3,2.2-4,2.6-8.2,2.7-13.8,0-2.7-.5-6.5-1.9-10.1-1.8-4.6-4.4-8.6-9.7-9.6-7.7-1.5-15.1-1-22.1,3.3-8.9,5.5-17.2,11.8-25.3,18.5-2.3,1.9-4.3,4.1-6.4,6.3-1.7,1.8-1.7,2.6.1,4.2,3.3,3,6.7,5.9,10.2,8.6,9.6,7.6,19.1,15.3,27.2,24.4,5.9,6.5,11,13.6,16.6,20.4,2.6,3.2,5.3,6.2,8.1,9.3,1.4,1.5,2,1.5,3.6.3,3.4-2.6,5.9-6,7.9-9.9,1-1.9,1.1-3.9,0-5.8-2.3-3.7-4.7-7.4-7.1-11.1-1.3-2.1-2.7-4.1-4-6.3-.9-1.6-.6-2.2,1.2-2,3.9.4,7.8.8,11.3,2.6,5.7,2.9,11.4,5.9,17.1,8.8.5.3,1.5.5,1.9.2,3.8-2.4,7.6-4.8,11.2-7.4,2.4-1.7,3.3-3.1.7-6.6h0ZM237.2,184.1c-3.6,2.6-7.3,5.1-11.1,7.4-.4.3-1.4,0-2.1-.3-5.7-2.9-11.3-6.2-17.2-8.7-3.5-1.5-7.5-1.9-11.3-2.5-2-.3-2.8.9-1.8,2.7,1.5,2.7,3.3,5.2,4.9,7.8,2.1,3.3,4.2,6.6,6.2,9.9,1.1,1.8.9,3.5,0,5.3-1.8,3.5-4.1,6.6-7.2,9.1-1.6,1.3-2,1.3-3.4-.2-2.6-2.9-5.2-5.9-7.7-9-5.4-6.6-10.4-13.4-16-19.8-6.5-7.5-14.2-13.8-21.8-20.2-4.4-3.6-8.9-7.1-13.4-10.7-1-.8-1.9-1.8-2.8-2.8-1-.9-1.1-1.9,0-2.9,2.1-2.1,4.1-4.4,6.4-6.3,8-6.6,16.4-12.9,25.2-18.4,6.7-4.2,14-4.7,21.5-3.3,5,.9,7.7,4.6,9.1,9,1.2,3.6,1.6,7.4,2.4,11-.1,0-.3,0-.5.1-.1,4.2-.5,8.4-2.6,12.2-1.2,2.3-.7,2.9,1.8,3.5,2.9.7,5.8,1.6,8.5,2.7,9.3,3.8,18.5,7.7,26.8,13.4,1.9,1.3,3.5,2.9,5.2,4.4.6.5,1,1.1,1.4,1.8,1.3,2.1,1.3,3.3-.7,4.7h0Z"/>
  <path class="cls-1" d="M280.8,491.2c.5-4.1.8-8.2,1.2-12.6h-2.2c-6.3,0-12.6,0-19-.1-5.8,0-11.4-.9-16.6-3.5-1.1-.5-2.3-.9-3.6-1.3-3.2-1-4.3-.3-5,3-.1.5-.2,1-.3,1.5-.6,4.6-1.2,9.3-3.3,13.6-.6,1.2-.8,2.7-.9,4.1-.3,3.7.6,4.4,4.1,3.6,5.4-1.3,10.9-2.3,16.5-1.6,4.1.5,8.1,1.1,11.9,2.8,2,.9,3.1,2.3,3,4.6-.2,3.8-.3,7.6-.7,11.4-.9,7.7-1.8,15.5-2.9,23.1-1.5,10.3-3,20.7-4.8,31-1.2,7-2.8,14-4.2,20.9-.7,3.5,0,5.2,3,6.3,5.2,1.9,10.6,3,16.1,3.5,2.9.2,4.3-1.2,4.3-4.2,0-2.2,0-4.5-.4-6.7-1.4-9.3-2-18.6-2-28,0-14.1.5-28.1,2-42.1,1.1-9.8,2.4-19.5,3.6-29.3h0ZM274.6,567.9c.1,8,1.2,16,1.9,24,.1,1.9.2,3.7.2,5.6,0,2.2-1,3.3-3.2,3-3.9-.5-7.8-1.2-11.6-2-1.7-.3-3.4-1-5-1.7-1.9-.8-2.5-1.8-2.1-3.9,1.2-6.3,2.7-12.7,3.8-19,1.9-11.4,3.7-22.8,5.4-34.3,1.1-7.8,2-15.7,2.9-23.5.4-3.5.5-7.1.7-10.6.2-2.9-1.1-4.7-3.9-5.8-5.1-2.1-10.5-2.8-16-2.9,0-.1,0-.3,0-.4-4,.7-8,1.4-12,2.2-3.4.7-3.9.2-3.5-3.1.1-1,.2-2,.7-2.9,2.2-4.7,2.9-9.7,3.6-14.7.6-4.1,1.4-4.6,5.3-3.2.6.2,1.2.4,1.7.6,5.9,3,12.2,3.9,18.7,3.8,5.8,0,11.5.1,17.3.1,1.4,0,1.9.5,1.8,1.8-.6,5.2-1.1,10.4-1.8,15.5-1.8,13.2-3.6,26.5-4.1,39.8-.4,10.5-.8,20.9-.5,31.4h0Z"/>
  <path class="cls-1" d="M380.2,275.1c-.9-6-2.5-11.6-6.2-16.5-6-7.8-15.8-10.1-24.5-5.7-7.8,3.9-13.4,10.1-18.2,17.2-8.7,13-12,27.6-12.4,43.1.1,1.5.2,3,.4,4.5,0,.4.5.8.7,1.2.5-.3,1.1-.4,1.3-.8.7-1.3,1.4-2.7,1.8-4.1,1.6-5.5,3-11.1,4.6-16.6,1.4-4.7,2.5-9.5,5.5-13.5,5.8-7.8,13.8-12.4,23.2-14.8,3-.8,5.8.1,7.6,2.9.9,1.3,1.7,2.6,2.2,4.1,1.5,4,1.5,8.2,1.1,12.4-.5,4.6-1.6,9-4.4,12.9-6.3,8.7-13.3,16.8-21.5,23.8-1.5,1.3-2.7,2.9-3.8,4.5-.4.6-.2,1.6-.3,2.4.8,0,1.9.5,2.5.1,3.1-1.5,6.4-2.8,9-4.9,11.8-9,20.9-20.3,27.8-33.4,3.1-5.8,4.7-11.9,3.6-18.6h0ZM379,285.1c-1.1,5-3.5,9.5-6.2,13.8-6.1,9.7-13.4,18.4-22.1,25.9-3.3,2.8-7,4.8-10.9,6.5-.5.2-1.2,0-1.9.1.1-.6,0-1.4.4-1.8,1.2-1.5,2.4-2.9,3.8-4.1,8.3-7.1,15.5-15.3,21.7-24.2,4-5.7,4.5-12.3,4.3-19-.1-3.9-1.2-7.6-3.5-10.8-2.1-2.8-4.9-4-8.3-3.1-9.7,2.4-17.9,7.2-23.9,15.3-2.8,3.8-4,8.5-5.3,13-1.7,5.8-3.2,11.7-4.9,17.5-.4,1.4-1.1,2.6-1.6,3.9-.2,0-.3,0-.5-.1-.1-.6-.3-1.1-.3-1.7-.3-17.8,3.5-34.4,14.4-49,3.9-5.2,8.4-9.8,14.2-13,11.1-6.1,21.7-1.8,27.1,8.3,3.8,7,5.3,14.6,3.5,22.6h0Z"/>
  <path class="cls-1" d="M416.5,496c-.6-.6-1.3-1.2-2-1.6-2.9-1.5-5.7-3-8.6-4.4-7.5-3.6-15.1-6.9-22.4-10.8-12.6-6.8-25-14-37.5-20.9-1.4-.8-3-1.4-4.6-1.8-2.4-.5-3.9.8-3.8,3.2.2,4.5.7,9,1,13.5.2,2.5,1.4,4,3.7,4.7.9.3,1.8.8,2.7,1.1,14.5,5.7,29.4,10.3,44.3,14.9,4.9,1.5,9.8,3.1,14.9,4.7-.2.5-.2.8-.3,1-1.6,3.1-3.4,6.1-5,9.2-7,13.6-12.5,27.9-17.6,42.4-1.4,3.9-2.6,7.9-3.8,11.8-.2.5.3,1.3.4,1.9.6-.3,1.5-.4,1.9-.9,1-1.3,1.8-2.7,2.6-4.1,3.5-7,6.9-14.2,10.5-21.2,5.8-11.3,12.6-22.1,20-32.5,1.6-2.3,2.9-4.9,4.3-7.3.6-1.1.3-2.1-.6-2.9h0ZM415.7,499.9c-2.1,3.4-4.2,6.8-6.5,10.1-9.1,13-16.6,26.9-23.4,41.2-1.8,3.9-4,7.6-6,11.4-.3.5-.8,1-1.1,1.5-.2,0-.4-.1-.5-.2.1-.8.2-1.5.4-2.3,6.8-20.3,14-40.4,24.6-59.2,2.3-4.1,2.3-4.2-2.1-5.6-15.5-5-31-10-46.5-15-4.3-1.4-8.5-3.3-12.7-4.9-1.4-.5-2.3-1.4-2.4-3-.4-4.7-.8-9.5-1.1-14.2-.1-1.9,1.1-2.8,3-2.3,1.8.5,3.5,1.2,5.1,2.1,11.6,6.5,23,13.1,34.7,19.4,7.6,4.1,15.4,7.6,23.1,11.4,2.7,1.3,5.4,2.5,8.1,3.9.8.4,1.6.9,2.3,1.4,2.2,1.5,2.4,2.1,1,4.4h0Z"/>
  <path class="cls-1" d="M369.9,111c-4.4-3.7-9.5-5.9-14.9-7.5-9.5-2.8-19.3-3.4-29.1-3-1.2,0-2.4.3-3.6.6-1.8.6-2.4,1.6-2,3.5.3,1.3.7,2.6,1.1,3.9,1.6,6.6,1.7,13.3,1.6,20,0,7.7-.4,15.4-1.1,23-.6,7.3-2,14.5-2.9,21.8-.6,4.6-.8,8,6,9.1,3.8.6,7.7.5,11.5.4,3.1,0,5-2,5.6-5,.5-2.3.8-4.6,1-6.9.3-4.1.5-8.3.8-12.4.1,0,.2,0,.4-.1.2.4.4.9.6,1.3,3.7,8,6.7,16.2,9.4,24.6.5,1.7,1.4,3.6,2.7,4.6,2.8,2,5.8,3.6,9,4.9,2.2.9,3.1.1,3.5-2.3,0-.3,0-.7,0-1.1.5-6.8-.4-13.6-2.1-20.1-1.8-7.1-4-14.2-6-21.2-1.1-3.7-1.1-3.8,2.6-4.7,3.4-.9,6.4-2.4,8.7-5.2,6.8-8.3,5.5-21-2.8-28.1h0ZM363.6,143.7c-4.2.9-4.2,1.1-3,5.3,2,7,4.4,13.9,5.9,21,1.3,5.8,1.7,11.8,2.3,17.7.1,1.3-.1,2.6-.3,3.9-.2,1.6-.9,2.1-2.3,1.4-3-1.4-6.1-2.8-8.8-4.7-1.3-.9-2.2-2.9-2.7-4.6-2.8-9-6.2-17.8-10.2-26.3-.2-.5-.6-1-.9-1.5-.1,0-.3,0-.5.1,0,.5-.2,1-.2,1.5-.4,5.7-.8,11.4-1.2,17.1,0,.2,0,.5,0,.8-.9,5.2-2.1,6.6-7.4,6.8-3.5.1-7-.2-10.4-.8-3.5-.6-4.9-2.5-4.5-6,.5-4,1.2-8,1.8-12,2.1-14,2.7-28.1,2.2-42.2-.2-5.3-.6-10.7-2.4-15.8-.8-2.5-.2-3.6,2.4-3.7,5.7-.2,11.4-.3,17.1,0,8.1.5,15.9,2.4,23.1,6.2,7.9,4.2,12.6,10.4,12.4,19.6-.2,6.8-4,14.2-12.6,16.2h0Z"/>
  <path class="cls-1" d="M422.5,342c-.6-1.2-1.8-1.2-2.9-.8-1.2.4-2.3.7-3.4,1.2-9.9,4.3-19.9,8.1-30.3,10.9-7.4,2-14.9,3.8-22.5,4.4-5.2.4-10.4.4-15.6.6,0-.1,0-.2,0-.4-.6,0-1.3,0-2,0-3.4,0-4,.4-4.6,3.8-.6,3-.9,6-1.3,9-1.2,9-4,17.5-7.6,25.8-3.3,7.6-7,15-10.4,22.6-1.6,3.6-1.9,7.4-1.6,11.3,0,.6.6,1.2.9,1.8.5-.5,1-1,1.5-1.5.2-.3.3-.8.4-1.1.6-1.6,1-3.3,1.9-4.8,3.4-6,7.1-11.9,10.4-18,5.5-10.3,10.8-20.7,16.2-31,.4-.7,1-1.5,1.6-1.8,10.7-5.1,21.6-9.8,32.8-13.7,9.7-3.3,19.5-6.5,28.7-11,2.5-1.2,4.8-2.8,7-4.4.9-.6,1.6-1.7.9-2.9h0ZM421,344.4c-2.1,1.5-4.2,3.1-6.6,4-8.2,3.4-16.4,6.7-24.7,9.6-12.6,4.4-25,9.4-37,15.2-.7.4-1.4,1.1-1.8,1.9-5.5,10.6-11,21.3-16.6,31.9-3.1,5.8-6.7,11.3-9.9,17.1-.9,1.6-1.4,3.5-2.1,5.3-.2.5-.5,1.1-.7,1.6-.2,0-.5,0-.7,0,.1-2.2.2-4.5.4-6.7.4-3.9,2.3-7.2,3.9-10.6,4.1-8.8,8.6-17.4,11.6-26.7,2.2-6.7,3.7-13.5,4.4-20.6.2-1.9.6-3.8,1-5.7.2-1.2,1-1.9,2.2-1.9,2.1,0,4.2-.1,6.4,0,6.9.6,13.6-.2,20.4-1.4,15.2-2.7,29.7-7.5,43.8-13.7,1.6-.7,3.2-1.3,4.8-1.8.6-.2,1.5.2,2.2.4-.3.7-.4,1.7-.9,2h0Z"/>
  <path class="cls-1" d="M441.5,148.6c-.6-.8-1.3-1.5-2-2.1-10-8.5-20.6-15.8-32.9-20.5-6.1-2.4-12.2-4.8-18.4-7.1-1.3-.5-2.4,0-3.3.8-.7.8-1.4,1.6-1.9,2.6-1.6,3-2.1,6.3-2.5,9.6-.3,3.5,1.2,5.8,4.3,7.3,1.1.6,2.3,1,3.4,1.6,3.7,1.8,7.4,3.7,11.1,5.5,1.1.5,1.2,1.2.7,2.3-4.3,8.8-8.4,17.7-12.8,26.4-2.9,5.7-6.4,11.1-9.5,16.7-.5.9-.6,1.9-.9,2.9.2,2.4,1.4,4.1,3.1,5.4,2.7,2.1,5.8,3.2,9.1,3.9,5,1,5.3.9,7.2-3.8,5.9-14.8,14.2-28.2,22.7-41.6.5-.9,1.2-1.1,2-.7,1.3.7,2.6,1.4,3.8,2.2,3,2,6,4.1,9.1,6.1,1.4.9,2.6.8,3.7-.5,2.3-2.5,3.8-5.3,5.1-8.4,1.4-3.2.7-6-1.3-8.6h0ZM441.6,157.9c-1.2,2.4-2.7,4.6-4.2,6.8-.9,1.3-2,1.5-3.4.6-2.9-2-5.8-4-8.8-5.9-1.4-.9-2.8-1.6-4.2-2.3-1-.5-1.8-.1-2.5.9-8.5,13.3-16.9,26.7-22.7,41.4-.1.3-.2.6-.4.9-1.6,3.8-1.8,3.9-5.8,3.1-3.3-.7-6.5-1.8-9.1-3.9-1.8-1.4-2.7-3-2.8-4.9.2-.8.3-1.7.7-2.4,4.2-7.6,8.6-15,12.6-22.7,3.6-6.9,6.6-14.1,10-21.1.6-1.2.3-1.9-.8-2.4-4-2-8-4-12.1-6-1.5-.8-3.1-1.5-4.6-2.4-1.5-.9-2.2-2.3-2.3-4.1,0-3.9.7-7.7,2.5-11.1,1.5-2.8,2.8-3.4,5.7-2.2,9.4,3.9,19,7.5,28.2,12,8,4,15.1,9.6,21.8,15.5,3.4,3.1,4.1,6.1,2,10.2h0Z"/>
  <path class="cls-1" d="M154,277.1c-2-.4-4.1-.6-6.1-1.3-10.6-3.7-21.2-7.4-31.6-11.4-14.1-5.4-28.2-11.2-41.6-18.2-4.1-2.1-8.1-4.2-12.3-6.4-1.3,1.7-2.6,3.3-3.8,5-3.7,5.6-5.9,11.9-7.9,18.3-1.1,3.4-.5,4.7,3,5.6,8.6,2.2,17.2,4.5,25.9,6.3,19,4,37.4,9.8,54.7,18.8,4.3,2.2,8.9,4,13.5,5.8,2.5,1,3.3.5,4.4-1.9,2.4-5.2,4.1-10.6,5-16.3.5-2.9-.1-3.7-3-4.2h0ZM155.5,284.8c-1.3,4-2.6,8.1-4,12.1-.9,2.5-1.4,2.7-3.9,1.8-3.5-1.3-7.1-2.7-10.5-4.4-19.1-10.1-39.4-16.5-60.5-20.8-7.5-1.5-14.8-3.6-22.2-5.4-.7-.2-1.4-.4-2-.7-1.2-.5-1.7-1.5-1.3-2.7,2.5-8.2,5.2-16.3,10.9-23,.7-.8,1.2-.6,1.9-.2,6.8,3.5,13.5,7.2,20.4,10.3,20.8,9.5,41.9,18,63.7,24.9,1.8.6,3.7.9,5.6,1.2,2,.3,2.8.9,2.8,2.8-.2,1.1-.4,2.7-.9,4.2h0Z"/>
  <path class="cls-1" d="M504.2,224.7c-2.3-8.1-7-14.6-13.2-20.1-2.9-2.5-6.2-4.1-10.1-4.4-5.2-.5-11.1,1.7-13.6,7.1-2,4.3-2.1,8.9-1.8,13.5.3,4.8.8,9.6,1.2,14.5,0,.7,0,1.5-.1,2.3-.2,2.4-1.7,3.3-3.8,2.2-2.2-1.1-3.6-3-4.6-5.1-.6-1.4-1.2-2.8-1.8-4.2-.5-1.1-1.4-2.1-2.7-1.8-2.4.5-4.7,1.1-6.9,2-2.3,1-3.8,3.1-4.1,5.6-.6,4-.2,8,1.7,11.7,2.9,5.8,7.2,10.5,12.2,14.5,6.2,5,15.3,3.3,19.5-3.4,2.5-4,3.6-8.5,4-13.1.4-5.2.4-10.4.7-15.6.1-2.3.3-4.6.6-6.9.3-1.9,1.3-2.7,3.3-2.9,2.5-.2,4.2.9,5.6,2.9,1.5,2.1,1.6,4.4,1.7,6.8.1,3.1,1.6,5.4,4,5.7,1.4.2,2.9,0,4.4-.1,1.9-.3,3-1.5,3.7-3.3.9-2.6.9-5.3.1-7.9h0ZM503.5,231.6c-.5,2.9-2.7,4-6.2,3.8-2.7-.2-4.1-1.6-4.4-4.5-.1-1.1-.2-2.3-.3-3.5-.4-3.8-3-7-6.4-7.6-2.9-.6-5.2.9-5.6,3.8-.4,3-.5,6-.7,9.1-.4,5.4-.5,10.8-1.1,16.2-.5,4.4-1.8,8.8-5.3,12-4.5,4-10.8,5.8-16.5,1.1-4.8-4-9-8.4-11.9-14-1.9-3.7-2.4-7.6-1.7-11.6.4-2.2,1.6-4.1,3.7-4.9,2-.9,4.2-1.4,6.4-1.9,1.3-.3,1.9.6,2.4,1.6.9,1.9,1.5,3.9,2.7,5.6,1,1.4,2.4,2.8,3.9,3.7,2.6,1.5,4.7.2,4.9-2.8,0-.8,0-1.6,0-2.4,0,0,0,0,.1,0-.4-4.1-.9-8.1-1.1-12.2-.1-3.7-.2-7.5.3-11.2,1.1-7.7,7.5-12,15.2-10.7,3.3.6,6.1,2,8.6,4.2,6.2,5.5,11,12,13,20.2.5,1.9.3,4.1,0,6.1h0Z"/>
  <path class="cls-1" d="M534.1,297.1c-.3-2-.6-4-1-6-2.3-10-6.2-19.4-10.3-28.8-1.8-4.1-3.7-8.1-5.8-12-1.2-2.4-2.5-3-5-2-3.1,1.2-6,2.8-8.9,4.5-1.9,1.1-3.6,2.7-5.1,4.2-1.5,1.5-1.5,2.8-.3,4.5,1.5,2.1,3.3,4,4.9,6,2.4,3,2.3,3.9-.8,6.1-7.8,5.6-16.2,10-24.9,13.8-1.5.7-3,1.7-4.4,2.6-.9.6-1.2,1.5-.8,2.5,1.9,4.4,3.8,8.8,5.8,13.1.5,1,1.1,1.1,2.2.5,6.6-3.8,13.2-7.6,20-11.1,3.6-1.9,7.5-3.4,11.4-4.8,1.9-.7,3-.2,3.9,1.6,1,1.8,1.6,3.8,2.3,5.7.7,1.8,1.1,3.7,1.8,5.5.5,1.5,1.7,2.2,3.3,2.3,3,.1,5.7-.8,8.3-2.1,2.5-1.3,3.9-3.2,3.5-6.2h0ZM531.2,301.9c-2.5,1.6-5.2,2.5-8.1,2.7-1.9.1-2.8-.4-3.5-2.2-.7-1.8-1.1-3.7-1.8-5.5-.7-1.9-1.4-3.8-2.3-5.6-1.1-2-2.4-2.6-4.4-1.9-3.9,1.4-7.9,2.9-11.6,4.8-6.5,3.4-12.9,7.2-19.4,10.8-1.7,1-1.9,1-2.7-.8-1.7-3.7-3.3-7.5-4.9-11.3-.5-1.2-.2-2.1.9-2.7,1.4-.8,2.7-1.6,4.1-2.2,7.9-3.4,15.5-7.5,22.7-12.2,1.1-.8,2.2-1.6,3.3-2.5,1.9-1.7,2-2.8.6-4.9-1.2-1.8-2.7-3.4-4.1-5.1-3.2-3.7-3.3-5,.8-7.9,3.4-2.4,7-4.4,10.7-6.2,2.7-1.3,3.9-.8,5.1,2,3.8,8.3,7.6,16.5,10.9,25,2.2,5.7,3.6,11.7,5.3,17.5.3,1.2.3,2.6.4,3.3.1,2.4-.5,3.8-2,4.7h0Z"/>
  <path class="cls-1" d="M470.9,179.2c-3.9-5.4-8.5-10.2-13.7-14.3-2.2-1.8-3.3-1.4-4.7,1.1-1.4,2.5-2.8,5-4.4,7.2-10.5,14.4-20.2,29.6-32.5,42.7-1.4,1.5-1.4,1.9,0,3.5,3,3.6,6.4,6.8,10.2,9.4,2,1.4,2.4,1.4,4.1-.5,2.6-2.9,5.3-5.9,7.7-9,8.5-11.1,17.4-21.9,28.1-30.9,1.8-1.5,3.4-3.3,5-5.1.6-.6,1-1.4,1.5-2.1-.4-.8-.8-1.5-1.2-2.1h0ZM469.9,183.1c-2.9,2.9-5.8,5.8-8.9,8.5-8.7,7.8-16,16.9-23.1,26.1-2.7,3.5-5.6,6.8-8.5,10.1-1.5,1.7-1.8,1.8-3.4.4-3.4-2.9-6.5-6-9.8-9-1-.9-.9-1.9,0-2.9,12.3-13.1,21.9-28.3,32.5-42.7,1.6-2.2,3-4.7,4.3-7.1,1.2-2.1,1.8-2.4,3.7-.9,5.1,4.1,9.6,8.8,13.5,14.1.3.4.5.9.9,1.6-.5.6-.8,1.3-1.3,1.8h0Z"/>
  <path class="cls-1" d="M553.9,434.5c-.1-3.5-1.8-5.5-5.3-6.2-.9-.2-1.8-.3-2.7-.3-3.9,0-7.5-.8-10.4-3.8-2.1-2.2-2.1-3,.8-4.2.2-.1.5-.2.7-.2,1.9-.3,3.9-.5,5.8-.9,2.2-.4,4.5-.7,6.6-1.5s2.6-2.1,2.1-4.3c-.3-1.7-.8-3.3-1.3-5-1.1-3.3-3.4-5.2-6.8-5.4-3.3-.2-6.6-.3-9.8.3-6.3,1.1-11.2,4.3-13.4,10.7-1.6,4.5-.8,9,.9,13.3,2.2,5.6,5.6,10.1,11.3,12.6,6.7,2.9,13.8,2.5,21,3,.2-1.6.3-2.9.4-4.2,0-1.3,0-2.6,0-3.9ZM552.9,440.6c0,.9-.5,1.2-1.4,1.2-.8,0-1.5,0-2.3,0,0,0,0,.1,0,.2-4.2-.6-8.4-.8-12.4-1.7-9.4-2.1-14.1-8.9-16.2-17.8-1.2-4.8-.3-9.4,3-13.2,2.3-2.8,5.4-4.3,8.9-5.2,4.1-1,8.2-1.3,12.3-.2,1.3.4,2.8,1.2,3.4,2.3,1.2,2.5,1.9,5.2,2.7,8,.4,1.3-.8,2.2-1.8,2.6-1.8.6-3.6,1-5.4,1.3-2.2.4-4.4.6-6.6.9-.4,0-.8.2-1.1.4-3.3,1.6-3.5,2.9-.9,5.4,2.6,2.5,5.7,3.9,9.4,3.9,1.7,0,3.4.2,5.1.6,2.2.5,3.4,2.1,3.5,4.3.2,2.3,0,4.6,0,7h0Z"/>
  <path class="cls-1" d="M555.3,455.2c-.4-1.5-1.1-1.6-2.4-1.4-4.2.6-8.3,1.1-12.5.5-4.5-.6-9-1.1-13.5-1.7-1.5-.2-2.7.3-3.5,1.5-1.3,1.8-1.6,3.8-1.3,5.9.5,4.1,1,8.2,1.7,12.3.5,3,1.1,6,1.8,8.9.4,1.8,1.5,2.5,3.3,2.1,1.2-.3,2.7-1,3.4-2,1.1-1.5,1.8-3.3,2.2-5,.5-1.9.4-4,.7-6,.1-1,.8-1.6,1.8-1.1.3.2.4,1.2.3,1.8-.4,2,0,3.9,1.1,5.6.7,1.1,1.7,2.1,3.2,2,1.4-.1,2.1-1.2,2.5-2.4.6-1.8,1-3.7,1.5-5.5.2-.8.5-1.7.8-2.5.3,0,.5,0,.8,0,.4,1.2.9,2.5,1.2,3.8.5,1.9.8,3.9,1.4,5.7.6,1.8,1.6,3.1,3.8,3.1,2,0,3.6-1,4.2-3.3.6-2.3.9-4.8.9-7.1,0-5.2-1.9-10.1-3.2-15.1h0ZM556.9,477.2c-.5,1.6-1.7,2.7-3.5,2.6-1.7,0-2.5-1.2-3-2.6-.5-1.7-.9-3.4-1.3-5.1-.3-1.1-.4-2.2-.9-3.2-.3-.7-1.1-1.1-1.7-1.7-.5.6-1.2,1.1-1.5,1.8-.4,1.2-.5,2.5-.8,3.7-.3,1.1-.6,2.3-1.1,3.3-1,2.2-2.6,2.3-4,.3-1.3-1.8-1.4-3.7-1.1-5.8,0-.7-.1-1.6-.6-2-.4-.4-1.4-.4-1.9-.2-.6.3-1.1,1.1-1.2,1.8-.3,1.4-.1,2.8-.4,4.2-.4,1.9-.8,3.8-1.6,5.5-.4,1-1.5,1.9-2.4,2.4-1.8,1-3.2.5-3.7-1.6-1-4.5-1.8-9.1-2.6-13.7-.4-2.3-.7-4.6-.9-6.9,0-1.1,0-2.2.2-3.3.6-2.7,2-3.6,4.7-3.3,4.6.5,9.1,1.4,13.7,1.7,3.7.2,7.4-.2,11-.5,1.3-.1,2,0,2.4,1.5,1.5,5.2,3.1,10.4,3.3,15.9-.4,1.8-.7,3.6-1.2,5.3h0Z"/>
  <path class="cls-1" d="M540.5,357.5c-2.4-3-5.5-5.1-9.5-5.5-2.3-.2-4.5-.4-6.8-.5h0c-1.2.1-2.3.1-3.5.2-5.9.2-9.9,3.2-12,8.6-2.2,5.5-2.4,11.2-.6,16.9.8,2.5.6,4.5-1.3,6.6-3.9,4.1-4.4,4.1-1.1,10.5.1.3.3.5.5.8,1.3,2,2.6,2.3,4.5.9,1.5-1.1,2.9-2.2,4.1-3.5,1.8-1.8,3.6-2.1,6-1.2,4.3,1.7,8.7,2.5,13.3,1.7,6.4-1.1,11.7-5.7,12.7-12,1.3-8.6-.8-16.5-6.3-23.3h0ZM546.2,379.6c-.9,7.5-7,12.5-14.5,12.7-3.8.1-7.5-.7-11-2-2.4-1-4.4-.6-6.2,1.2-1.3,1.3-2.7,2.5-4.1,3.6-1.7,1.3-2.7,1.1-3.7-.7-.8-1.4-1.5-2.9-2.1-4.4-.5-1.2-.2-2.4.6-3.4.8-.9,1.5-1.8,2.3-2.6,2-1.9,2.3-4,1.5-6.5-1.5-4.5-1.7-9.2-.5-13.8.5-2.1,1.4-4.1,2.5-6,2.8-4.5,7.3-5.6,12.2-5.6,2.2.1,4.3.3,6.5.4,4.3.3,7.8,2.2,10.4,5.5,5,6.3,7,13.5,6.1,21.5h0Z"/>
  <path class="cls-1" d="M202.7,551.4c-1.7,1-3.4,2.1-4.7,3.5-5.3,5.5-10.5,10.9-15.6,16.6-2.3,2.6-4.4,5.6-6.2,8.6-1.8,3.1-.8,5.4,2.6,6.4,3.2,1,6.4,1.8,9.7,2.6,1.5.4,2.9-.3,3.5-1.7.4-.8.7-1.8.8-2.7.1-5.6,1.9-10.9,4.4-15.8,2.1-4,4.5-7.9,6.7-11.9.7-1.3,1.2-2.6,1.6-3.5,0-2.2-1.2-3-2.8-2.1h0ZM204.6,553.6c-.4,1.1-.9,2.3-1.5,3.3-2.1,3.8-4.5,7.5-6.5,11.3-2.5,4.9-4.3,10.1-4.5,15.8,0,.9-.3,1.9-.6,2.8-.4,1.2-1.3,1.7-2.7,1.8-3.5-1-7.1-2-10.6-3.2-2-.7-2.5-2.2-1.7-4.2.6-1.5,1.5-2.9,2.4-4.2,6.4-8.3,13.4-16.1,21.2-23.1.8-.7,1.7-1.3,2.6-1.8.4-.2,1.2-.3,1.5-.1.3.3.4,1,.2,1.5h0Z"/>
  <path class="cls-1" d="M566.6,336c0-.4,0-.8,0-1.2-.2-2.3-.5-4.6-2.3-6.4-3.1-2.9-8.3-3.1-12.2-.3-5,3.6-4.9,6.3-3,10.4,0,.2.2.4.2.6,1.9,4.1,5,6.6,9.6,7.2,3.3.4,6.5-1.8,7.2-5.1.3-1.7.4-3.4.6-5.1h-.1ZM565.5,340.2c-.4,3.2-2.4,5.1-5.7,5.2-3.8.2-7.9-2.5-9.7-6.4-.1-.3-.3-.7-.4-1-1.8-4.5-1.1-6.8,2.9-9.4,3.7-2.4,8.6-2.2,11.2.5,1.4,1.4,1.7,3.2,1.9,5,0,.7,0,1.4,0,2.1,0,0,0,0,.1,0-.1,1.3-.2,2.6-.4,3.9h0Z"/>
  <path class="cls-1" d="M388.9,691.9c-3.5-15.4-8.3-30.5-13.7-45.3-12.9-35.1-26-70.1-39.2-105.1-6.4-17.1-12.8-34.1-17.7-51.7-5.6-19.9-9.3-40.2-12.2-60.6-2.3-15.8-3.6-31.8-4.1-47.8-.5-16.8.3-33.6,2-50.3,1.7-16.9,4.3-33.6,7.5-50.2,2.9-14.7,5.4-29.4,5.7-44.5.3-13.5.2-27-1.7-40.4-3.1-22.4-8.1-44.4-15.1-65.9-2.8-8.6-5.8-17-10.1-25-1.7-3.2-3.6-6.2-6.5-8.5-1.5-1.2-3.2-1.7-5-1.2-2.5.7-5,1.4-7.5,2.2-1.8.6-2.6,1.9-2.8,3.8-.5,4.2-.9,8.4-1.5,12.7-2,13.9-3.9,27.7-6,41.6-.9,6-1.7,12-1.3,18.1,0,.7,0,1.4,1,1.3,2.8-.2,5.5-.4,8.3-.8,1.8-.2,3-1.4,3.2-3.3.4-2.7.9-5.3,1.1-8,.6-5.1,1-10.2,1.6-15.2.2-1.8.9-2.4,2.6-2,2.4.5,4.7,1.2,7,2,3.4,1.2,5.8,3.5,6.6,7.1.2.9.6,1.7.8,2.6,2.3,10.6,4.7,21.2,6.8,31.9,2.5,13,4,26.1,4.2,39.3.1,13.1-1.2,26.2-2.9,39.2-2.4,19.3-5.1,38.6-7.2,58-1.4,12.8-2.3,25.7-2.6,38.6-.3,16.2,0,32.4.5,48.6.2,10.8,1.5,21.6,3.2,32.3,2.8,17.7,7.4,34.9,13,51.9,10.7,32,21.9,63.7,34.4,95,8.2,20.5,17.1,40.8,25.7,61.1,5,11.8,10.3,23.6,13.1,36.2,2,8.7,3.8,17.5,5,26.3.9,6.6.7,13.3,1,20,.1,3.4.3,6.7.5,10.4.5-.3.6-.4.7-.5.2-.4.5-.8.7-1.2,2.4-4.4,3.6-9.1,3.9-14.2.6-13-.2-25.9-3-38.6h0ZM286.7,131.3c-.8,0-1.5,0-2.3,0,0,0,0,.1,0,.2-1.4-.2-2.8-.3-4.2-.7-1.8-.4-2.6-1.5-2.6-3.2,0-4.8,1.1-9.5,2.6-14.1.2-.5.8-.8,1.2-1.2.4.4,1,.8,1.2,1.2,2,5,3.9,10.1,5.8,15.1.6,1.7.2,2.4-1.7,2.6h0Z"/>
  <path class="cls-1" d="M146.2,308.9c-1.1,4.1-2.4,8.3-3,12.5-1,6.8-1.6,13.8-2.1,20.6-.3,3.9-.4,7.9-.6,11.8,0,1.3-.5,1.6-1.7,1.6-10.4.4-20.8.8-31.2,1.1-16.1.6-31.9,2.7-47.7,6-8.3,1.8-16.6,3.5-24.9,5.3-.7.1-1.3.3-1.9.5-1.7.6-2.8.1-3.2-1.6-.4-1.8-.5-3.7-.7-4.9.5-9,1.9-17.1,3.7-25.2.3-1.3,1.1-1.6,2.3-1.4,2.3.5,4.6.9,6.8,1.5,6.8,1.9,13.7,2.9,20.7,3.1,11.9.5,23.8.9,35.7.9,6,0,12-.9,18-1.4,3.2-.3,5.5-2,6.8-5,2.7-6.1,3.8-12.6,4.3-19.3.2-3.4.3-6.9.6-10.3.1-1.8.4-2,2.2-1.6,5,1.2,9.9,2.5,14.9,3.6,1.1.3,1.6.8,1.2,2h0Z"/>
  <path class="cls-1" d="M444.2,492.5c-1.8,6-4.6,11.4-7.7,16.8-13.6,23.3-28.5,45.6-45,67-5,6.5-10,13-15.1,19.4-.7.9-1.6,1.7-2.4,2.5-.2,0-.3-.2-.5-.3.4-1,.5-2.1,1-3.1,3.7-6.8,7.3-13.7,11.2-20.5,8.5-14.8,17.4-29.4,25.7-44.4,6-10.7,10.7-22,15.2-33.4,1.4-3.4,1-6-1.8-8.5-2.6-2.4-5.4-4.5-8.4-6.4-5.3-3.3-10.3-7.1-15.5-10.6-19.1-12.8-38.2-25.5-57.3-38.3-2.7-1.8-5.2-3.8-7.7-5.9-1.2-1-1.8-2.3-1-4.1.7.3,1.3.5,1.9.9,6.2,3.7,12.3,7.7,18.6,11.1,10.1,5.4,20.4,10.5,30.7,15.6,1.4.7,3,1.1,4.6,1.6.7.2,1.5.5,2.1.9,6.1,4.2,13.1,6.5,19.9,9.2,6.3,2.5,12.6,4.9,18.9,7.6,4.3,1.8,7.8,4.9,10.7,8.5,3.5,4.4,3.5,9.2,2,14.2h0Z"/>
  <path class="cls-1" d="M149.7,417.8c-5.4,1.6-10.9,3-16.2,5-14.4,5.4-28.2,12.2-41.8,19.4-9.9,5.3-19.7,10.7-28.8,17.2-2.6,1.9-5.1,3.9-7.6,5.8-2.7,2-3.2,2.1-4.8-.9-2.5-4.5-4.9-9.1-6.9-13.8-3.7-8.6-7-17.4-9-26.5-1-4.5-1.5-9-2.3-13.6,0,0,.2,0,.3,0,0-.9,0-1.7.2-2.6.3-2.4,1.5-4.2,3.9-4.7,3.1-.7,6.3-1.1,9.5-1.5.3,0,1,.7,1.1,1.2,1.4,5,2.7,10.1,4.2,15,1.1,3.5,2.5,6.8,4.1,10.1,1.1,2.2,2.2,2.4,4.5,1.6,5.6-2.1,11.3-4.1,16.9-6.3,1.5-.6,3-1.2,4.4-2,2.5-1.4,3-2.5,2.4-5.4-.5-2.4-1-4.9-1.6-7.3,0-.2-.1-.4-.1-.6-.8-4.3-.9-5.1,3.7-7.1,2.3-1,4.8-1.5,7.3-2,1.9-.4,3.4.3,4.4,2,.7,1.2,1.3,2.5,1.9,3.8.4.8.7,1.6,1.1,2.3,1.3,2.5,1.7,2.7,4.3,1.9,7.4-2.2,14.7-4.4,22-6.9,3.6-1.2,4.2-3.1,3-6.6-.2-.6-.4-1.1-.7-1.7-2.8-6.1-4.3-12.6-5.3-19.2-.3-2.4.4-4,2.5-5.2,5.1-3,10.7-4,16.6-4.3,1.1,0,1.1.7,1.1,1.4.2,2.8.4,5.6.5,8.3.5,9.7,3.1,18.9,6.1,28.1,1,3.1,1.9,6.3,2.6,9.5.8,3.4,0,4.5-3.4,5.6h0Z"/>
  <path class="cls-1" d="M541.8,335.1c0,3-1.2,4-4.2,3.5-3.1-.5-6.1-1.4-9.2-2-8.6-1.5-17.2-2.9-25.9-4.2-10.2-1.5-20.4-3-30.6-4.4-2.8-.4-5.8,0-8.6.1-10.2.7-20.5,1.4-30.7,2.1-14.5,1.1-28.9,2.9-43.1,6.1-8.6,1.9-17.4,3-26.1,4.6-3.4.6-5.3-1.1-7.2-3.9,1.8-.5,3.4-1,5-1.4,11.1-2.7,22.3-5,33.3-8.2,15.3-4.5,30.9-7.4,46.6-9.4,13.3-1.7,26.7-2.5,40.1-2,16.3.6,32.5,1.9,48.4,5.7,3.4.8,6.7,1.8,9.6,3.9,1.3.9,2.1,2.1,2.2,3.6.2,1.9.4,3.8.4,5.8h0Z"/>
  <path class="cls-1" d="M183.4,229c-1.6,2.5-3.1,5.1-4.9,7.5-6,8.1-11.3,16.6-15.2,26-1.4,3.3-2.9,3.9-5.9,2-3.4-2.3-6.6-5-9.8-7.6-6.7-5.4-13.2-11.1-20.1-16.4-8.4-6.5-18.1-10.8-27.7-15.3-6.6-3.1-13.1-6.1-19.6-9.3-4.2-2.1-3.8-1.9-1.7-5.5,7.9-13.6,16.5-26.6,27.9-37.5,2.8-2.7,5.9-5.3,9.5-7,3.1-1.4,4.5-1.3,6.6,1.4,1.5,1.9,2.8,3.9,4.1,6,.4.6.4,1.4.4,1.8,0,2.7-1.2,4.6-2.5,6.5-4.1,6.1-8.3,12.1-12.3,18.2-2.7,4.1-2.6,4.3,1.3,7.2,3.1,2.3,6.4,4.5,9.6,6.7,1.2.9,2.2.6,2.9-.6.9-1.6,1.8-3.1,2.7-4.7,2.3-4.1,3.4-4.4,6.8-1.2,2.4,2.3,4.6,5,6.8,7.6,1.1,1.3,1,2.8.2,4.3-.5.9-.9,1.8-1.4,2.7-.8,1.3-.7,2.5.4,3.5,2.8,2.5,5.4,5.2,8.5,7.3,3.9,2.7,6.7,1.9,9.4-2,2.6-3.6,5.2-7.3,8-10.9,1.2-1.6,2.8-2.9,4.3-4.2.9-.9,2-.9,3,0,3.6,2.8,6.6,6.3,8.9,10.2.7,1.3.4,2.5-.3,3.6h0Z"/>
  <path class="cls-1" d="M218.2,471.5c-.9-.9-1.8-1.7-2.8-2.4-2.8-2-5.8-3.5-9.4-3.1-4.4.4-7.9,2.6-11,5.7-3.2,3.2-6.4,6.6-9.4,10.1-3.3,3.9-6.3,7.9-9.4,11.9-.3.4-.9.7-1.4,1-.3-.5-.7-1-.7-1.5-.1-1,0-2.1,0-3.2.7-6.9,2.1-13.7,4-20.4,1.2-4.3,2.3-8.6,3.5-12.9.4-1.3,0-2.5-.7-3.6-2.2-3.3-5.2-5.6-8.7-7.3-3.3-1.5-5.2-.9-6.6,2.5-1,2.5-1.8,5-2.6,7.6-3.8,11.9-7.1,24-11.4,35.7-5.9,16.2-12.5,32.1-18.7,48.2-1.2,3-1.8,6.3-2.7,9.4.1,0,.3,0,.4,0-.2,2.7.5,5.1,2.9,6.6,5.3,3.4,10.7,6.8,16.1,10,1.9,1.1,2.8.9,4.2-.8,1.4-1.6,2.7-3.3,3.8-5.1,5.1-8.5,10.1-17.1,15.2-25.6,3.7-6.1,7-12.5,11.4-18.1,9.1-11.7,18.7-23,28.2-34.4,1.8-2.2,3.9-4.3,5.8-6.4,1.4-1.6,1.4-2.6-.1-4.1h0ZM165.1,518.9c-2.4,2.9-4.9,5.8-7.4,8.6-.2.3-.8.3-1.2.4-.1-.5-.5-1-.4-1.3.7-2.5,1.4-5.1,2.3-7.5.6-1.7,1.4-3.4,2.2-5,.6-1.2,1.4-2.2,3-1.8,1.2.3,2.6,2.1,2.6,4-.2.6-.4,1.8-1.1,2.7Z"/>
  <path class="cls-1" d="M161.7,440.3c-.8.9-1.6,1.8-2.6,2.6-8.9,6.6-16.6,14.5-24,22.7-8.6,9.6-16.8,19.6-23.6,30.6-2.1,3.4-3.9,7-5.8,10.5-.2.5-.1,1.4.2,1.8,4.1,4.6,8.3,9.2,13.4,12.7.3.2.7.5.9.7,3,2.6,3.2,4.3.9,7.5-1.6,2.2-3,4.5-4.4,6.9-1.2,2-2.1,2.5-4.3,1.6-1.6-.7-3.2-1.5-4.6-2.6-14.6-10.6-27.7-22.7-38-37.6-2.8-4.1-4.7-8.8-7-13.3-.9-1.8-.5-3.7,1.2-4.9,3.1-2.3,6.3-4.4,9.5-6.5,1-.6,1.8-.4,2.5.5,2.9,3.9,5.8,7.8,8.8,11.6,1.1,1.5,2.3,3,3.6,4.7,5.1-4,10-7.7,14.8-11.7,13.5-11.2,25.2-24.1,37.1-36.9,4.4-4.7,8.9-9.3,13.4-13.9,2.5-2.5,3.1-2.5,5.4.3,1.8,2.2,3.2,4.7,3.8,7.5.4,1.9,0,3.5-1.2,5h0Z"/>
  <path class="cls-1" d="M237.9,179.4c-.4-.6-.9-1.3-1.4-1.8-1.7-1.5-3.4-3.1-5.2-4.4-8.3-5.7-17.6-9.6-26.8-13.4-2.8-1.1-5.6-2-8.5-2.7-2.5-.6-3-1.2-1.8-3.5,2.1-3.8,2.4-8,2.6-12.2.2,0,.3,0,.5-.1-.8-3.7-1.3-7.5-2.4-11-1.4-4.4-4.1-8.1-9.1-9-7.5-1.4-14.8-.9-21.5,3.3-8.9,5.5-17.2,11.8-25.2,18.5-2.3,1.9-4.3,4.2-6.4,6.3-1,1-.9,1.9,0,2.9.9.9,1.8,1.9,2.8,2.8,4.4,3.6,9,7.1,13.4,10.7,7.6,6.3,15.3,12.7,21.8,20.2,5.6,6.4,10.7,13.2,16,19.8,2.5,3.1,5.1,6,7.7,9,1.4,1.6,1.8,1.6,3.4.2,3-2.5,5.3-5.6,7.2-9.1.9-1.8,1.1-3.6,0-5.3-2.1-3.3-4.1-6.6-6.2-9.9-1.6-2.6-3.4-5.1-4.9-7.8-1-1.8-.2-3.1,1.8-2.7,3.8.6,7.8,1,11.3,2.5,5.9,2.5,11.5,5.8,17.2,8.7.6.3,1.6.6,2.1.3,3.7-2.4,7.5-4.8,11.1-7.4,2-1.4,2-2.7.7-4.7ZM179,147.2c-.2.8-.5,1.6-.9,2.2-2.1,2.9-4.4,5.7-6.9,8.9-2.9-3.4-5.4-6.4-7.9-9.4-1-1.2-.8-2.6.3-3.7,3.3-3.2,7.3-4.5,11.8-4,3,.3,4.5,3,3.6,5.9h0Z"/>
  <path class="cls-1" d="M281,481.1c-.6,5.2-1.1,10.4-1.8,15.5-1.8,13.2-3.6,26.5-4.1,39.8-.4,10.5-.8,20.9-.5,31.4.1,8,1.2,16,1.9,24,.1,1.9.2,3.7.2,5.6,0,2.2-1,3.3-3.2,3-3.9-.5-7.8-1.2-11.6-2-1.7-.3-3.4-1-5-1.7-1.9-.8-2.5-1.8-2.1-3.9,1.2-6.3,2.7-12.7,3.8-19,1.9-11.4,3.7-22.8,5.4-34.3,1.1-7.8,2-15.7,2.9-23.5.4-3.5.5-7.1.7-10.6.2-2.9-1.1-4.7-3.9-5.8-5.1-2.1-10.5-2.8-16-2.9,0-.1,0-.3,0-.4-4,.7-8,1.4-12,2.2-3.4.7-3.9.2-3.5-3.1.1-1,.2-2,.7-2.9,2.2-4.7,2.9-9.7,3.6-14.7.6-4.1,1.4-4.6,5.3-3.2.6.2,1.2.4,1.7.6,5.9,3,12.2,3.9,18.7,3.8,5.8,0,11.5.1,17.3.1,1.4,0,1.9.5,1.8,1.8h0Z"/>
  <path class="cls-1" d="M379,285.1c-1.1,5-3.5,9.5-6.2,13.8-6.1,9.7-13.4,18.4-22.1,25.9-3.3,2.8-7,4.8-10.9,6.5-.5.2-1.2,0-1.9.1.1-.6,0-1.4.4-1.8,1.2-1.5,2.4-2.9,3.8-4.1,8.3-7.1,15.5-15.3,21.7-24.2,4-5.7,4.5-12.3,4.3-19-.1-3.9-1.2-7.6-3.5-10.8-2.1-2.8-4.9-4-8.3-3.1-9.7,2.4-17.9,7.2-23.9,15.3-2.8,3.8-4,8.5-5.3,13-1.7,5.8-3.2,11.7-4.9,17.5-.4,1.4-1.1,2.6-1.6,3.9-.2,0-.3,0-.5-.1-.1-.6-.3-1.1-.3-1.7-.3-17.8,3.5-34.4,14.4-49,3.9-5.2,8.4-9.8,14.2-13,11.1-6.1,21.7-1.8,27.1,8.3,3.8,7,5.3,14.6,3.5,22.6h0Z"/>
  <path class="cls-1" d="M415.7,499.9c-2.1,3.4-4.2,6.8-6.5,10.1-9.1,13-16.6,26.9-23.4,41.2-1.8,3.9-4,7.6-6,11.4-.3.5-.8,1-1.1,1.5-.2,0-.4-.1-.5-.2.1-.8.2-1.5.4-2.3,6.8-20.3,14-40.4,24.6-59.2,2.3-4.1,2.3-4.2-2.1-5.6-15.5-5-31-10-46.5-15-4.3-1.4-8.5-3.3-12.7-4.9-1.4-.5-2.3-1.4-2.4-3-.4-4.7-.8-9.5-1.1-14.2-.1-1.9,1.1-2.8,3-2.3,1.8.5,3.5,1.2,5.1,2.1,11.6,6.5,23,13.1,34.7,19.4,7.6,4.1,15.4,7.6,23.1,11.4,2.7,1.3,5.4,2.5,8.1,3.9.8.4,1.6.9,2.3,1.4,2.2,1.5,2.4,2.1,1,4.4h0Z"/>
  <path class="cls-1" d="M363.6,143.7c8.6-1.9,12.4-9.3,12.6-16.2.3-9.2-4.5-15.4-12.4-19.6-7.2-3.8-15-5.7-23.1-6.2-5.7-.4-11.4-.2-17.1,0-2.6,0-3.2,1.2-2.4,3.7,1.8,5.2,2.2,10.5,2.4,15.8.5,14.1-.2,28.2-2.2,42.2-.6,4-1.4,8-1.8,12-.4,3.5,1,5.5,4.5,6,3.4.5,6.9.9,10.4.8,5.3-.2,6.5-1.6,7.4-6.8,0-.2,0-.5,0-.8.4-5.7.8-11.4,1.2-17.1,0-.5.1-1,.2-1.5.1,0,.3,0,.5-.1.3.5.7,1,.9,1.5,3.9,8.6,7.3,17.3,10.2,26.3.5,1.7,1.4,3.6,2.7,4.6,2.7,1.9,5.7,3.3,8.8,4.7,1.4.6,2,.1,2.3-1.4.2-1.3.4-2.6.3-3.9-.7-5.9-1.1-11.9-2.3-17.7-1.6-7.1-3.9-14-5.9-21-1.2-4.2-1.2-4.3,3-5.3h0ZM353.9,126c-3.8,2.5-8.1,3.4-12.6,2.9-1.3-.1-1.9-.9-2-2.1,0-.8,0-1.6,0-2.4,0,0-.1,0-.2,0,.2-1.4.4-2.9.7-4.3.4-1.5,1.5-2.4,3.1-2.4,3.8,0,7.4.7,10.7,2.3,3.1,1.5,3.2,4.2.3,6.1Z"/>
  <path class="cls-1" d="M421.8,342.4c-.3.7-.4,1.7-.9,2-2.1,1.5-4.2,3.1-6.6,4-8.2,3.4-16.4,6.7-24.7,9.6-12.6,4.4-25,9.4-37,15.2-.7.4-1.4,1.1-1.8,1.9-5.5,10.6-11,21.3-16.6,31.9-3.1,5.8-6.7,11.3-9.9,17.1-.9,1.6-1.4,3.5-2.1,5.3-.2.5-.5,1.1-.7,1.6-.2,0-.5,0-.7,0,.1-2.2.2-4.5.4-6.7.4-3.9,2.3-7.2,3.9-10.6,4.1-8.8,8.6-17.4,11.6-26.7,2.2-6.7,3.7-13.5,4.4-20.6.2-1.9.6-3.8,1-5.7.2-1.2,1-1.9,2.2-1.9,2.1,0,4.2-.1,6.4,0,6.9.6,13.6-.2,20.4-1.4,15.2-2.7,29.7-7.5,43.8-13.7,1.6-.7,3.2-1.3,4.8-1.8.6-.2,1.5.2,2.2.4h0Z"/>
  <path class="cls-1" d="M441.6,157.9c-1.2,2.4-2.7,4.6-4.2,6.8-.9,1.3-2,1.5-3.4.6-2.9-2-5.8-4-8.8-5.9-1.4-.9-2.8-1.6-4.2-2.3-1-.5-1.8-.1-2.5.9-8.5,13.3-16.9,26.7-22.7,41.4-.1.3-.2.6-.4.9-1.6,3.8-1.8,3.9-5.8,3.1-3.3-.7-6.5-1.8-9.1-3.9-1.8-1.4-2.7-3-2.8-4.9.2-.8.3-1.7.7-2.4,4.2-7.6,8.6-15,12.6-22.7,3.6-6.9,6.6-14.1,10-21.1.6-1.2.3-1.9-.8-2.4-4-2-8-4-12.1-6-1.5-.8-3.1-1.5-4.6-2.4-1.5-.9-2.2-2.3-2.3-4.1,0-3.9.7-7.7,2.5-11.1,1.5-2.8,2.8-3.4,5.7-2.2,9.4,3.9,19,7.5,28.2,12,8,4,15.1,9.6,21.8,15.5,3.4,3.1,4.1,6.1,2,10.2h0Z"/>
  <path class="cls-1" d="M156.4,280.6c-.2,1.1-.4,2.7-.9,4.2-1.3,4-2.6,8.1-4,12.1-.9,2.5-1.4,2.7-3.9,1.8-3.5-1.3-7.1-2.7-10.5-4.4-19.1-10.1-39.4-16.5-60.5-20.8-7.5-1.5-14.8-3.6-22.2-5.4-.7-.2-1.4-.4-2-.7-1.2-.5-1.7-1.5-1.3-2.7,2.5-8.2,5.2-16.3,10.9-23,.7-.8,1.2-.6,1.9-.2,6.8,3.5,13.5,7.2,20.4,10.3,20.8,9.5,41.9,18,63.7,24.9,1.8.6,3.7.9,5.6,1.2,2,.3,2.8.9,2.8,2.8h0Z"/>
  <path class="cls-1" d="M503.5,231.6c-.5,2.9-2.7,4-6.2,3.8-2.7-.2-4.1-1.6-4.4-4.5-.1-1.1-.2-2.3-.3-3.5-.4-3.8-3-7-6.4-7.6-2.9-.6-5.2.9-5.6,3.8-.4,3-.5,6-.7,9.1-.4,5.4-.5,10.8-1.1,16.2-.5,4.4-1.8,8.8-5.3,12-4.5,4-10.8,5.8-16.5,1.1-4.8-4-9-8.4-11.9-14-1.9-3.7-2.4-7.6-1.7-11.6.4-2.2,1.6-4.1,3.7-4.9,2-.9,4.2-1.4,6.4-1.9,1.3-.3,1.9.6,2.4,1.6.9,1.9,1.5,3.9,2.7,5.6,1,1.4,2.4,2.8,3.9,3.7,2.6,1.5,4.7.2,4.9-2.8,0-.8,0-1.6,0-2.4,0,0,0,0,.1,0-.4-4.1-.9-8.1-1.1-12.2-.1-3.7-.2-7.5.3-11.2,1.1-7.7,7.5-12,15.2-10.7,3.3.6,6.1,2,8.6,4.2,6.2,5.5,11,12,13,20.2.5,1.9.3,4.1,0,6.1h0Z"/>
  <path class="cls-1" d="M531.2,301.9c-2.5,1.6-5.2,2.5-8.1,2.7-1.9.1-2.8-.4-3.5-2.2-.7-1.8-1.1-3.7-1.8-5.5-.7-1.9-1.4-3.8-2.3-5.6-1.1-2-2.4-2.6-4.4-1.9-3.9,1.4-7.9,2.9-11.6,4.8-6.5,3.4-12.9,7.2-19.4,10.8-1.7,1-1.9,1-2.7-.8-1.7-3.7-3.3-7.5-4.9-11.3-.5-1.2-.2-2.1.9-2.7,1.4-.8,2.7-1.6,4.1-2.2,7.9-3.4,15.5-7.5,22.7-12.2,1.1-.8,2.2-1.6,3.3-2.5,1.9-1.7,2-2.8.6-4.9-1.2-1.8-2.7-3.4-4.1-5.1-3.2-3.7-3.3-5,.8-7.9,3.4-2.4,7-4.4,10.7-6.2,2.7-1.3,3.9-.8,5.1,2,3.8,8.3,7.6,16.5,10.9,25,2.2,5.7,3.6,11.7,5.3,17.5.3,1.2.3,2.6.4,3.3.1,2.4-.5,3.8-2,4.7h0Z"/>
  <path class="cls-1" d="M471.2,181.2c-.5.6-.8,1.3-1.3,1.8-2.9,2.9-5.8,5.8-8.9,8.5-8.7,7.8-16,16.9-23.1,26.1-2.7,3.5-5.6,6.8-8.5,10.1-1.5,1.7-1.8,1.8-3.4.4-3.4-2.9-6.5-6-9.8-9-1-.9-.9-1.9,0-2.9,12.3-13.1,21.9-28.3,32.5-42.7,1.6-2.2,3-4.7,4.3-7.1,1.2-2.1,1.8-2.4,3.7-.9,5.1,4.1,9.6,8.8,13.5,14.1.3.4.5.9.9,1.6h0Z"/>
  <path class="cls-1" d="M552.9,440.6c0,.9-.5,1.2-1.4,1.2-.8,0-1.5,0-2.3,0,0,0,0,.1,0,.2-4.2-.6-8.4-.8-12.4-1.7-9.4-2.1-14.1-8.9-16.2-17.8-1.2-4.8-.3-9.4,3-13.2,2.3-2.8,5.4-4.3,8.9-5.2,4.1-1,8.2-1.3,12.3-.2,1.3.4,2.8,1.2,3.4,2.3,1.2,2.5,1.9,5.2,2.7,8,.4,1.3-.8,2.2-1.8,2.6-1.8.6-3.6,1-5.4,1.3-2.2.4-4.4.6-6.6.9-.4,0-.8.2-1.1.4-3.3,1.6-3.5,2.9-.9,5.4,2.6,2.5,5.7,3.9,9.4,3.9,1.7,0,3.4.2,5.1.6,2.2.5,3.4,2.1,3.5,4.3.2,2.3,0,4.6,0,7h0Z"/>
  <path class="cls-1" d="M558.1,472c-.4,1.8-.7,3.6-1.2,5.3-.5,1.6-1.7,2.7-3.5,2.6-1.7,0-2.5-1.2-3-2.6-.5-1.7-.9-3.4-1.3-5.1-.3-1.1-.4-2.2-.9-3.2-.3-.7-1.1-1.1-1.7-1.7-.5.6-1.2,1.1-1.5,1.8-.4,1.2-.5,2.5-.8,3.7-.3,1.1-.6,2.3-1.1,3.3-1,2.2-2.6,2.3-4,.3-1.3-1.8-1.4-3.7-1.1-5.8,0-.7-.1-1.6-.6-2-.4-.4-1.4-.4-1.9-.2-.6.3-1.1,1.1-1.2,1.8-.3,1.4-.1,2.8-.4,4.2-.4,1.9-.8,3.8-1.6,5.5-.4,1-1.5,1.9-2.4,2.4-1.8,1-3.2.5-3.7-1.6-1-4.5-1.8-9.1-2.6-13.7-.4-2.3-.7-4.6-.9-6.9,0-1.1,0-2.2.2-3.3.6-2.7,2-3.6,4.7-3.3,4.6.5,9.1,1.4,13.7,1.7,3.7.2,7.4-.2,11-.5,1.3-.1,2,0,2.4,1.5,1.5,5.2,3.1,10.4,3.3,15.9h0Z"/>
  <path class="cls-1" d="M540.1,358.1c-2.6-3.3-6.1-5.3-10.4-5.5-2.2-.1-4.3-.3-6.5-.4-5,0-9.5,1-12.2,5.6-1.1,1.8-1.9,3.9-2.5,6-1.2,4.6-.9,9.2.5,13.8.8,2.5.5,4.6-1.5,6.5-.8.8-1.5,1.7-2.3,2.6-.9,1-1.1,2.2-.6,3.4.6,1.5,1.3,3,2.1,4.4,1,1.8,2,2,3.7.7,1.4-1.1,2.8-2.3,4.1-3.6,1.8-1.8,3.8-2.2,6.2-1.2,3.5,1.4,7.1,2.2,11,2,7.5-.3,13.6-5.3,14.5-12.7.9-7.9-1.1-15.2-6.1-21.5h0ZM531.5,380.8c-.4.2-.8.4-1.3.4-1.5.3-2.2-.5-1.6-1.9.4-1,.9-1.9,1.4-2.9.6-1.1.4-2-.3-3-.3-.4-.7-.9-1.1-1.3-2-2.1-2.3-2.1-4.8-.7-2.2,1.2-3.2,1-4-1.5-.4-1.3-.6-2.8-.5-4.2.1-2,2.1-3.1,4.7-2.7,4.2.6,7.7,2.8,10.5,5.9,1.6,1.8,2.9,3.9,4.3,5.9-2.3,2.3-4.5,4.5-7.3,5.8h0Z"/>
  <path class="cls-1" d="M204.6,553.6c-.4,1.1-.9,2.3-1.5,3.3-2.1,3.8-4.5,7.5-6.5,11.3-2.5,4.9-4.3,10.1-4.5,15.8,0,.9-.3,1.9-.6,2.8-.4,1.2-1.3,1.7-2.7,1.8-3.5-1-7.1-2-10.6-3.2-2-.7-2.5-2.2-1.7-4.2.6-1.5,1.5-2.9,2.4-4.2,6.4-8.3,13.4-16.1,21.2-23.1.8-.7,1.7-1.3,2.6-1.8.4-.2,1.2-.3,1.5-.1.3.3.4,1,.2,1.5h0Z"/>
  <path class="cls-1" d="M565.9,336.3c-.1,1.3-.2,2.6-.4,3.9-.4,3.2-2.4,5.1-5.7,5.2-3.8.2-7.9-2.5-9.7-6.4-.1-.3-.3-.7-.4-1-1.8-4.5-1.1-6.8,2.9-9.4,3.7-2.4,8.6-2.2,11.2.5,1.4,1.4,1.7,3.2,1.9,5,0,.7,0,1.4,0,2.1,0,0,0,0,.1,0h0Z"/>
  <path class="cls-1" d="M288.4,128.7c-1.9-5.1-3.8-10.1-5.8-15.1-.2-.5-.8-.8-1.2-1.2-.4.4-1,.7-1.2,1.2-1.5,4.6-2.5,9.3-2.6,14.1,0,1.8.9,2.8,2.6,3.2,1.4.3,2.8.4,4.2.7,0,0,0-.1,0-.2.8,0,1.5,0,2.3,0,1.8-.2,2.3-.9,1.7-2.6h0ZM286.6,130.5c-2.1,0-4.1-.2-6.2-.4-1.1-.1-2-1-2-2.2,0-4.9,1-9.7,2.6-14.3,0-.1.2-.2.5-.5.5,1.1,1,2.1,1.4,3.1,1.6,4.2,3.1,8.5,4.8,12.8.4,1.1,0,1.7-1.1,1.7h0Z"/>
  <path class="cls-1" d="M163.6,512.2c-1.6-.4-2.4.6-3,1.8-.8,1.6-1.6,3.3-2.2,5-.9,2.5-1.6,5-2.3,7.5-.1.4.2.9.4,1.3.4-.1,1-.1,1.2-.4,2.5-2.8,5-5.6,7.4-8.6.7-.8.9-2.1,1.1-2.7,0-1.9-1.4-3.7-2.6-4ZM164.7,518c-1.8,3.6-4.6,6.3-7.5,9-.2,0-.4-.2-.5-.2.8-2.3,1.4-4.7,2.3-7,.6-1.8,1.4-3.5,2.2-5.3.4-.8,1.1-2,2.1-1.4.9.5,1.6,1.6,1.9,2.6.2.6-.2,1.6-.5,2.3h0Z"/>
  <path class="cls-1" d="M175.3,141.2c-4.5-.5-8.5.8-11.8,4-1.1,1.1-1.3,2.4-.3,3.7,2.5,3,5,6,7.9,9.4,2.5-3.3,4.8-6.1,6.9-8.9.5-.6.7-1.4.9-2.2.9-2.9-.6-5.6-3.6-5.9h0ZM178.4,146.4c-.1.8-.4,1.7-.9,2.4-2,2.7-4,5.4-6.4,8.4-2.6-3.1-5-5.9-7.3-8.8-.7-.9-.5-1.8.3-2.6,3.2-3.2,7.1-4.3,11.5-3.8,2.1.3,3.2,2.2,2.8,4.3h0Z"/>
  <path class="cls-1" d="M353.6,120c-3.4-1.7-7-2.4-10.7-2.3-1.6,0-2.7.9-3.1,2.4-.3,1.4-.5,2.9-.7,4.3,0,0,.1,0,.2,0,0,.8,0,1.6,0,2.4.1,1.2.8,2,2,2.1,4.5.5,8.8-.4,12.6-2.9,2.9-1.9,2.8-4.5-.3-6.1ZM353.9,125c-2.3,1.3-4.8,2.2-7.4,3-1.3.4-2.7.3-4.1.3-2.1,0-2.4-.3-2.5-2.4,0-.6,0-1.2,0-1.8.1-1.1,0-2.1.3-3.1.4-2.1,1.5-3.1,3.5-2.7,3,.4,5.9,1.3,8.8,2,.5.1.9.4,1.3.7,1.7,1.2,1.8,2.9,0,3.9h0Z"/>
  <path class="cls-1" d="M534.5,369.1c-2.8-3.1-6.2-5.3-10.5-5.9-2.5-.4-4.5.7-4.7,2.7,0,1.4,0,2.9.5,4.2.8,2.4,1.8,2.7,4,1.5,2.5-1.4,2.8-1.4,4.8.7.4.4.7.8,1.1,1.3.7.9.9,1.9.3,3-.5.9-1,1.9-1.4,2.9-.5,1.4.2,2.2,1.6,1.9.4,0,.9-.3,1.3-.4,2.9-1.3,5-3.5,7.3-5.8-1.5-2-2.7-4.1-4.3-5.9h0ZM529.5,380.6c-.1-.1-.3-.2-.4-.3.4-.9.8-1.8,1.2-2.6.6-1.2,1.5-2.5.5-3.7-1.2-1.5-2.7-3-4.3-4.1-.5-.4-2,.4-2.8.9-2,1-2.5,1-3.1-1.2-.3-1.2-.4-2.5-.3-3.7.1-1.4,1.3-1.8,2.5-1.9,2.8-.1,5.1,1,7.3,2.4,3.4,2.1,5.6,5.2,7.7,8.7-2.5,2.3-4.8,4.9-8.3,5.5h0Z"/>
  <path class="cls-2" d="M281.5,113c.5,1.1,1,2.1,1.4,3.1,1.6,4.2,3.1,8.5,4.8,12.7.4,1.1,0,1.7-1.1,1.7-2.1,0-4.1-.2-6.2-.4-1.1-.1-2-1-2-2.2,0-4.9,1-9.7,2.6-14.3,0-.1.2-.2.5-.5h0Z"/>
  <path class="cls-2" d="M156.7,526.7c.8-2.3,1.4-4.7,2.3-7,.6-1.8,1.4-3.5,2.2-5.3.4-.8,1.1-2,2.1-1.4.9.5,1.6,1.6,1.9,2.6.2.6-.2,1.6-.5,2.3-1.8,3.6-4.6,6.3-7.5,9-.2,0-.4-.2-.5-.2h0Z"/>
  <path class="cls-2" d="M171.1,157.2c-2.6-3.1-5-5.9-7.3-8.8-.7-.9-.5-1.8.3-2.6,3.2-3.2,7.1-4.3,11.5-3.8,2.1.3,3.2,2.2,2.8,4.3-.1.8-.4,1.7-.9,2.4-2,2.7-4,5.4-6.4,8.4h0Z"/>
  <path class="cls-2" d="M340,124.2c0-1.1,0-2.1.3-3.1.4-2.1,1.5-3,3.5-2.7,3,.4,5.9,1.3,8.8,2,.5.1.9.4,1.3.7,1.7,1.2,1.8,2.9,0,3.9-2.3,1.3-4.8,2.2-7.4,3-1.3.4-2.7.3-4.1.3-2.1,0-2.4-.3-2.5-2.4,0-.6,0-1.2,0-1.8Z"/>
  <path class="cls-2" d="M537.8,375.1c-2.5,2.3-4.8,4.9-8.3,5.5-.1-.1-.3-.2-.4-.3.4-.9.8-1.8,1.2-2.6.6-1.2,1.5-2.5.5-3.7-1.2-1.5-2.7-3-4.3-4.1-.5-.4-2,.4-2.8.9-2,1-2.5,1-3.1-1.2-.3-1.2-.4-2.5-.3-3.7.1-1.4,1.3-1.8,2.5-1.9,2.8-.1,5.1,1,7.3,2.4,3.4,2.1,5.6,5.2,7.7,8.7h0Z"/>
</svg>